<svg width="128" height="128" viewBox="0 0 128 128" fill="none" xmlns="http://www.w3.org/2000/svg" role="img">

  <defs>
    <linearGradient id="bg" x1="16" y1="8" x2="112" y2="120" gradientUnits="userSpaceOnUse">
      <stop offset="0" stop-color="#1B2142"/>
      <stop offset="0.52" stop-color="#14152E"/>
      <stop offset="1" stop-color="#0B0D20"/>
    </linearGradient>
    <linearGradient id="stroke" x1="18" y1="10" x2="110" y2="118" gradientUnits="userSpaceOnUse">
      <stop offset="0" stop-color="#8C7BFF"/>
      <stop offset="1" stop-color="#4B3C89"/>
    </linearGradient>
    <linearGradient id="accent" x1="34" y1="28" x2="96" y2="100" gradientUnits="userSpaceOnUse">
      <stop offset="0" stop-color="#FFFFFF"/>
      <stop offset="0.55" stop-color="#CFC7FF"/>
      <stop offset="1" stop-color="#8BE7FF"/>
    </linearGradient>
    <linearGradient id="hot" x1="80" y1="20" x2="110" y2="54" gradientUnits="userSpaceOnUse">
      <stop offset="0" stop-color="#FF7CA8"/>
      <stop offset="1" stop-color="#FF526F"/>
    </linearGradient>
    <filter id="softShadow" x="-20%" y="-20%" width="140%" height="140%">
      <feDropShadow dx="0" dy="10" stdDeviation="12" flood-color="#000000" flood-opacity="0.35"/>
    </filter>
    <filter id="glow" x="-50%" y="-50%" width="200%" height="200%">
      <feGaussianBlur stdDeviation="2.6" result="blur"/>
      <feMerge>
        <feMergeNode in="blur"/>
        <feMergeNode in="SourceGraphic"/>
      </feMerge>
    </filter>
  </defs>

  <rect x="10" y="10" width="108" height="108" rx="26" fill="url(#bg)" filter="url(#softShadow)"/>
  <rect x="10.75" y="10.75" width="106.5" height="106.5" rx="25.25" stroke="url(#stroke)" stroke-width="1.5" opacity="0.95"/>
  <path d="M28 18H76C99.2 18 110 28.8 110 52V100" stroke="#FFFFFF" stroke-opacity="0.08" stroke-width="2" stroke-linecap="round"/>

  <title>AI flagged message detection avatar</title>
  <circle cx="64" cy="64" r="38" fill="#FF7CA8" opacity="0.08"/>
  <path d="M38 40H78C86.8 40 94 47.2 94 56V70C94 78.8 86.8 86 78 86H61L47 96V86H38C32.5 86 28 81.5 28 76V50C28 44.5 32.5 40 38 40Z" stroke="url(#accent)" stroke-width="4.5" stroke-linejoin="round"/>
  <path d="M52 55V74" stroke="#FFFFFF" stroke-opacity="0.90" stroke-width="4" stroke-linecap="round"/>
  <path d="M52 56H72L67 65H52" stroke="url(#hot)" stroke-width="4" stroke-linecap="round" stroke-linejoin="round" filter="url(#glow)"/>
  <path d="M73 54L77 63L86 67L77 71L73 80L69 71L60 67L69 63L73 54Z" fill="#8BE7FF" opacity="0.95"/>
  <circle cx="42" cy="63" r="3" fill="#FFFFFF" opacity="0.45"/>
  <circle cx="86" cy="36" r="7" fill="url(#hot)" filter="url(#glow)"/>

</svg>
