<svg width="128" height="128" viewBox="0 0 128 128" fill="none" xmlns="http://www.w3.org/2000/svg" role="img">

  <defs>
    <linearGradient id="bg" x1="16" y1="8" x2="112" y2="120" gradientUnits="userSpaceOnUse">
      <stop offset="0" stop-color="#1B2142"/>
      <stop offset="0.52" stop-color="#14152E"/>
      <stop offset="1" stop-color="#0B0D20"/>
    </linearGradient>
    <linearGradient id="stroke" x1="18" y1="10" x2="110" y2="118" gradientUnits="userSpaceOnUse">
      <stop offset="0" stop-color="#8C7BFF"/>
      <stop offset="1" stop-color="#4B3C89"/>
    </linearGradient>
    <linearGradient id="accent" x1="34" y1="28" x2="96" y2="100" gradientUnits="userSpaceOnUse">
      <stop offset="0" stop-color="#FFFFFF"/>
      <stop offset="0.55" stop-color="#CFC7FF"/>
      <stop offset="1" stop-color="#8BE7FF"/>
    </linearGradient>
    <linearGradient id="hot" x1="80" y1="20" x2="110" y2="54" gradientUnits="userSpaceOnUse">
      <stop offset="0" stop-color="#FF7CA8"/>
      <stop offset="1" stop-color="#FF526F"/>
    </linearGradient>
    <filter id="softShadow" x="-20%" y="-20%" width="140%" height="140%">
      <feDropShadow dx="0" dy="10" stdDeviation="12" flood-color="#000000" flood-opacity="0.35"/>
    </filter>
    <filter id="glow" x="-50%" y="-50%" width="200%" height="200%">
      <feGaussianBlur stdDeviation="2.6" result="blur"/>
      <feMerge>
        <feMergeNode in="blur"/>
        <feMergeNode in="SourceGraphic"/>
      </feMerge>
    </filter>
  </defs>

  <rect x="10" y="10" width="108" height="108" rx="26" fill="url(#bg)" filter="url(#softShadow)"/>
  <rect x="10.75" y="10.75" width="106.5" height="106.5" rx="25.25" stroke="url(#stroke)" stroke-width="1.5" opacity="0.95"/>
  <path d="M28 18H76C99.2 18 110 28.8 110 52V100" stroke="#FFFFFF" stroke-opacity="0.08" stroke-width="2" stroke-linecap="round"/>

  <title>Audio filter clear and deep avatar</title>
  <circle cx="64" cy="64" r="38" fill="#7F63FF" opacity="0.10"/>
  <path d="M32 67C37.8 57.5 44.3 57.5 50 67C55.7 76.5 62.3 76.5 68 67C73.7 57.5 80.3 57.5 86 67C88.7 71.5 91.5 73.9 95 74.2" stroke="url(#accent)" stroke-width="4.5" stroke-linecap="round"/>
  <path d="M36 50H48M42 44V56" stroke="#FFFFFF" stroke-opacity="0.85" stroke-width="4" stroke-linecap="round"/>
  <path d="M58 43V55" stroke="#CFC7FF" stroke-width="4" stroke-linecap="round"/>
  <path d="M74 39V59" stroke="#CFC7FF" stroke-width="4" stroke-linecap="round"/>
  <path d="M90 46V56" stroke="#CFC7FF" stroke-width="4" stroke-linecap="round"/>
  <circle cx="58" cy="61" r="5" fill="#8BE7FF"/>
  <circle cx="74" cy="34" r="5" fill="#FF7CA8"/>
  <circle cx="90" cy="62" r="5" fill="#8BE7FF"/>
  <path d="M42 86H87" stroke="#FFFFFF" stroke-opacity="0.35" stroke-width="4" stroke-linecap="round"/>
  <path d="M47 94H78" stroke="#FFFFFF" stroke-opacity="0.18" stroke-width="4" stroke-linecap="round"/>

</svg>
