<svg width="128" height="128" viewBox="0 0 128 128" fill="none" xmlns="http://www.w3.org/2000/svg" role="img">

  <defs>
    <linearGradient id="bg" x1="16" y1="8" x2="112" y2="120" gradientUnits="userSpaceOnUse">
      <stop offset="0" stop-color="#1B2142"/>
      <stop offset="0.52" stop-color="#14152E"/>
      <stop offset="1" stop-color="#0B0D20"/>
    </linearGradient>
    <linearGradient id="stroke" x1="18" y1="10" x2="110" y2="118" gradientUnits="userSpaceOnUse">
      <stop offset="0" stop-color="#8C7BFF"/>
      <stop offset="1" stop-color="#4B3C89"/>
    </linearGradient>
    <linearGradient id="accent" x1="34" y1="28" x2="96" y2="100" gradientUnits="userSpaceOnUse">
      <stop offset="0" stop-color="#FFFFFF"/>
      <stop offset="0.55" stop-color="#CFC7FF"/>
      <stop offset="1" stop-color="#8BE7FF"/>
    </linearGradient>
    <linearGradient id="hot" x1="80" y1="20" x2="110" y2="54" gradientUnits="userSpaceOnUse">
      <stop offset="0" stop-color="#FF7CA8"/>
      <stop offset="1" stop-color="#FF526F"/>
    </linearGradient>
    <filter id="softShadow" x="-20%" y="-20%" width="140%" height="140%">
      <feDropShadow dx="0" dy="10" stdDeviation="12" flood-color="#000000" flood-opacity="0.35"/>
    </filter>
    <filter id="glow" x="-50%" y="-50%" width="200%" height="200%">
      <feGaussianBlur stdDeviation="2.6" result="blur"/>
      <feMerge>
        <feMergeNode in="blur"/>
        <feMergeNode in="SourceGraphic"/>
      </feMerge>
    </filter>
  </defs>

  <rect x="10" y="10" width="108" height="108" rx="26" fill="url(#bg)" filter="url(#softShadow)"/>
  <rect x="10.75" y="10.75" width="106.5" height="106.5" rx="25.25" stroke="url(#stroke)" stroke-width="1.5" opacity="0.95"/>
  <path d="M28 18H76C99.2 18 110 28.8 110 52V100" stroke="#FFFFFF" stroke-opacity="0.08" stroke-width="2" stroke-linecap="round"/>

  <title>Beauty enhancement avatar</title>
  <circle cx="64" cy="66" r="38" fill="#FF7CA8" opacity="0.10"/>
  <path d="M43 80C47.6 91.3 56.7 98 64 98C71.3 98 80.4 91.3 85 80" stroke="url(#accent)" stroke-width="4.8" stroke-linecap="round"/>
  <path d="M42 63C42 49.7 51.9 40 64 40C76.1 40 86 49.7 86 63C86 66.7 85.4 70.4 84.2 74" stroke="url(#accent)" stroke-width="4.8" stroke-linecap="round"/>
  <path d="M53 67C55.2 64.8 58.2 64.8 60.4 67" stroke="#FFFFFF" stroke-opacity="0.75" stroke-width="3.5" stroke-linecap="round"/>
  <path d="M67.6 67C69.8 64.8 72.8 64.8 75 67" stroke="#FFFFFF" stroke-opacity="0.75" stroke-width="3.5" stroke-linecap="round"/>
  <path d="M57 82C61.2 85.2 66.8 85.2 71 82" stroke="#FFFFFF" stroke-opacity="0.75" stroke-width="3.5" stroke-linecap="round"/>
  <path d="M92 32L95 40L103 43L95 46L92 54L89 46L81 43L89 40L92 32Z" fill="url(#hot)" filter="url(#glow)"/>
  <path d="M37 34L39 40L45 42L39 44L37 50L35 44L29 42L35 40L37 34Z" fill="#8BE7FF" opacity="0.95"/>
  <path d="M79 41C72 33 55 33 48 44" stroke="#FFFFFF" stroke-opacity="0.24" stroke-width="4" stroke-linecap="round"/>

</svg>
