<svg xmlns="http://www.w3.org/2000/svg" viewBox="0 0 96 96">
  <defs>
    <linearGradient id="bg" x1="8" x2="88" y1="8" y2="88" gradientUnits="userSpaceOnUse">
      <stop stop-color="#fb7185"/>
      <stop offset="1" stop-color="#4c1d95"/>
    </linearGradient>
  </defs>
  <rect width="96" height="96" rx="24" fill="url(#bg)"/>
  <path d="M48 70c-9-8-25-16-22-30 2-10 15-12 22-2 7-10 20-8 22 2 3 14-13 22-22 30Z" fill="#fff1f2"/>
  <path d="M28 28c-4-4-11-2-12 4-2 7 6 11 12 16 6-5 14-9 12-16-1-6-8-8-12-4Z" fill="#fb7185"/>
  <path d="M72 25c-3-3-9-2-10 3-1 6 5 9 10 13 5-4 11-7 10-13-1-5-7-6-10-3Z" fill="#fbbf24"/>
  <path d="M38 53c7 7 14 7 21 0" fill="none" stroke="#be123c" stroke-width="4" stroke-linecap="round"/>
</svg>
