<svg xmlns="http://www.w3.org/2000/svg" viewBox="0 0 96 96">
  <defs>
    <linearGradient id="bg" x1="16" x2="82" y1="10" y2="88" gradientUnits="userSpaceOnUse">
      <stop stop-color="#ff8ab3"/>
      <stop offset="1" stop-color="#7c2d12"/>
    </linearGradient>
    <linearGradient id="petal" x1="20" x2="72" y1="20" y2="58" gradientUnits="userSpaceOnUse">
      <stop stop-color="#ffe4ef"/>
      <stop offset=".45" stop-color="#fb3f79"/>
      <stop offset="1" stop-color="#9f1239"/>
    </linearGradient>
  </defs>
  <rect width="96" height="96" rx="24" fill="url(#bg)"/>
  <path d="M49 45c6-9 19-8 22 1 4 13-14 21-22 28-8-7-26-15-22-28 3-9 16-10 22-1Z" fill="url(#petal)"/>
  <path d="M48 73c-2-12-1-25 4-37" fill="none" stroke="#14532d" stroke-width="5" stroke-linecap="round"/>
  <path d="M45 63c-11-2-17 3-20 10 10 3 17 0 20-10Z" fill="#22c55e"/>
  <path d="M51 57c11-1 17 4 19 11-10 2-17-1-19-11Z" fill="#16a34a"/>
</svg>
