<svg xmlns="http://www.w3.org/2000/svg" viewBox="0 0 64 64">
  <defs>
    <radialGradient id="sendAvatarGlow" cx="31%" cy="24%" r="68%">
      <stop offset="0" stop-color="#fff8c9"/>
      <stop offset=".33" stop-color="#69f3d1"/>
      <stop offset=".68" stop-color="#2f9ee8"/>
      <stop offset="1" stop-color="#7a35ff"/>
    </radialGradient>
    <linearGradient id="sendAvatarPlane" x1="18" x2="48" y1="18" y2="46">
      <stop offset="0" stop-color="#ffffff"/>
      <stop offset=".64" stop-color="#eff7ff"/>
      <stop offset="1" stop-color="#cfe3ff"/>
    </linearGradient>
    <linearGradient id="sendAvatarRing" x1="10" x2="55" y1="8" y2="56">
      <stop offset="0" stop-color="#ffffff" stop-opacity=".88"/>
      <stop offset=".38" stop-color="#ffe479" stop-opacity=".62"/>
      <stop offset=".7" stop-color="#35e4ff" stop-opacity=".58"/>
      <stop offset="1" stop-color="#ffffff" stop-opacity=".16"/>
    </linearGradient>
  </defs>
  <circle cx="32" cy="32" r="30" fill="#15101f"/>
  <circle cx="32" cy="32" r="28" fill="url(#sendAvatarGlow)"/>
  <circle cx="32" cy="32" r="27" fill="none" stroke="url(#sendAvatarRing)" stroke-width="2"/>
  <path fill="#0d2b46" opacity=".18" d="M13 41c7 8 18 11 28 7 7-3 12-8 14-15-5 6-13 9-24 9-7 0-13 0-18-1Z"/>
  <path fill="url(#sendAvatarPlane)" d="M17.4 30.1 46.9 16c1.8-.8 3.5 1 2.6 2.8L35.2 47.3c-.9 1.8-3.5 1.6-4.1-.3l-3.5-10.6-10.2-2.2c-2-.4-2.1-3.2 0-4.1Z"/>
  <path fill="#7bd8ff" d="m27.6 36.4 19.1-18.9-13.8 23.7-1.8 5.8-3.5-10.6Z" opacity=".62"/>
  <path fill="#ffffff" d="M19.2 31.7 46.4 18.8 27.6 36.4l-8.4-1.8c-1.5-.3-1.6-2.3 0-2.9Z" opacity=".92"/>
  <path fill="#fff5a7" d="m14.7 15.2 2.1 4.1 4.5 1.1-4.1 2.1-1.1 4.5-2.1-4.1-4.5-1.1 4.1-2.1 1.1-4.5Z"/>
  <circle cx="47.5" cy="41.5" r="3.3" fill="#ffffff" opacity=".42"/>
</svg>
