<svg xmlns="http://www.w3.org/2000/svg" viewBox="0 0 200 200" role="img" aria-label="Default avatar">
  <defs>
    <linearGradient id="bg" x1="26" y1="24" x2="174" y2="180" gradientUnits="userSpaceOnUse">
      <stop offset="0" stop-color="#f7a43a"/>
      <stop offset="1" stop-color="#d65a4d"/>
    </linearGradient>
    <linearGradient id="halo" x1="43" y1="39" x2="151" y2="151" gradientUnits="userSpaceOnUse">
      <stop offset="0" stop-color="#39dbff"/>
      <stop offset=".48" stop-color="#8667ff"/>
      <stop offset="1" stop-color="#ce56d8"/>
    </linearGradient>
    <linearGradient id="hood" x1="54" y1="39" x2="149" y2="178" gradientUnits="userSpaceOnUse">
      <stop offset="0" stop-color="#2630a6"/>
      <stop offset=".5" stop-color="#3c2c9a"/>
      <stop offset="1" stop-color="#27205f"/>
    </linearGradient>
    <linearGradient id="robe" x1="48" y1="122" x2="152" y2="184" gradientUnits="userSpaceOnUse">
      <stop offset="0" stop-color="#6268df"/>
      <stop offset="1" stop-color="#22194f"/>
    </linearGradient>
    <radialGradient id="face" cx="50%" cy="45%" r="58%">
      <stop offset="0" stop-color="#2a2154"/>
      <stop offset="1" stop-color="#131127"/>
    </radialGradient>
    <filter id="softShadow" x="-20%" y="-20%" width="140%" height="150%">
      <feDropShadow dx="0" dy="9" stdDeviation="9" flood-color="#3a1b4f" flood-opacity=".3"/>
    </filter>
  </defs>
  <rect width="200" height="200" rx="52" fill="url(#bg)"/>
  <path d="M45 150c2-46 18-89 55-113 37 24 53 67 55 113-16 19-35 30-55 30s-39-11-55-30Z" fill="url(#halo)" opacity=".94"/>
  <path d="M35 187c5-43 31-68 65-68s60 25 65 68H35Z" fill="url(#robe)" filter="url(#softShadow)"/>
  <path d="M55 131c1-42 14-79 45-99 31 20 44 57 45 99-12 19-28 30-45 30s-33-11-45-30Z" fill="url(#hood)" filter="url(#softShadow)"/>
  <path d="M70 121c2-30 12-52 30-65 18 13 28 35 30 65-9 11-19 17-30 17s-21-6-30-17Z" fill="#151125" opacity=".54"/>
  <ellipse cx="100" cy="103" rx="38" ry="34" fill="url(#face)"/>
  <path d="M69 129c9 18 18 31 31 40v-40H69Z" fill="#6961d9" opacity=".5"/>
  <path d="M100 129v40c13-9 22-22 31-40h-31Z" fill="#21184d" opacity=".58"/>
  <circle cx="86" cy="101" r="4.8" fill="#ffcf63"/>
  <circle cx="114" cy="101" r="4.8" fill="#ffcf63"/>
  <path d="M79 118c13 8 29 8 42 0" fill="none" stroke="#6f5fff" stroke-width="4" stroke-linecap="round" opacity=".26"/>
  <path d="M58 138c9 16 23 27 42 33 19-6 33-17 42-33" fill="none" stroke="#9c8cff" stroke-width="3" stroke-linecap="round" opacity=".26"/>
</svg>
